<svg width="600" height="450" viewBox="0 0 600 450" xmlns="http://www.w3.org/2000/svg">
  <defs>
    <linearGradient id="bullGradient" x1="0%" y1="0%" x2="100%" y2="100%">
      <stop offset="0%" style="stop-color:#2eebb1;stop-opacity:1" />
      <stop offset="50%" style="stop-color:#00c060;stop-opacity:1" />
      <stop offset="100%" style="stop-color:#007f30;stop-opacity:1" />
    </linearGradient>
  </defs>

  <!-- <rect width="100%" height="100%" fill="white"/> -->

  <g transform="translate(150, 50) scale(0.8)">
    
    <path fill="url(#bullGradient)" d="
      M 195,330 
      L 195,100
      C 195,100 180,98 160,110
      C 140,122 130,140 100,135
      C 70,130 50,100 50,70
      C 50,40 70,20 100,60
      C 80,30 50,20 30,50
      C 10,80 30,110 50,130
      C 60,140 50,150 40,155
      C 60,155 80,145 90,145
      C 110,145 120,160 120,170
      C 100,175 110,200 120,210
      C 115,220 120,240 140,250
      C 135,270 150,300 160,310
      C 170,320 180,330 195,330
      Z" />
      
    <path fill="white" d="M 125,185 C 145,175 175,180 185,200 C 160,205 130,195 125,185 Z" />
    <path fill="white" d="M 145,260 C 165,255 180,270 185,290 C 170,285 150,270 145,260 Z" />
    <path fill="white" d="M 165,315 C 175,310 185,315 190,320 L 190,325 C 180,325 170,320 165,315 Z" />

    <g transform="translate(210, 150)">
      <line x1="15" y1="-30" x2="15" y2="130" stroke="black" stroke-width="4" stroke-linecap="round"/>
      <rect x="0" y="20" width="30" height="80" rx="4" fill="black" />
    </g>

    <g transform="translate(255, 80)">
      <line x1="15" y1="-20" x2="15" y2="100" stroke="#D50000" stroke-width="4" stroke-linecap="round"/>
      <rect x="0" y="10" width="30" height="60" rx="4" fill="#D50000" />
    </g>

    <g transform="translate(300, 60)">
      <line x1="12" y1="-15" x2="12" y2="55" stroke="black" stroke-width="4" stroke-linecap="round"/>
      <rect x="0" y="0" width="24" height="40" rx="4" fill="black" />
    </g>

  </g>

  <g font-family="Arial, Helvetica, sans-serif" font-weight="bold" font-size="42" letter-spacing="1">
    <text x="300" y="400" text-anchor="middle">
      <tspan fill="black">QUANTUM</tspan>
      <tspan dx="5" fill="#D50000">BULL</tspan>
    </text>
  </g>

</svg>
